<svg width="24" height="15" viewBox="0 0 24 15" fill="none" xmlns="http://www.w3.org/2000/svg">
    <path d="M0.978842 11.7692H13.2801M18.0045 11.7692H21.0205M18.0045 11.7692C18.0045 11.1466 17.7557 10.5494 17.3128 10.1091C16.8699 9.66885 16.2692 9.4215 15.6428 9.4215C15.0165 9.4215 14.4158 9.66885 13.9729 10.1091C13.53 10.5494 13.2812 11.1466 13.2812 11.7692C13.2812 12.3918 13.53 12.989 13.9729 13.4293C14.4158 13.8695 15.0165 14.1169 15.6428 14.1169C16.2692 14.1169 16.8699 13.8695 17.3128 13.4293C17.7557 12.989 18.0045 12.3918 18.0045 11.7692ZM0.978842 3.65397H4.34259M9.06701 3.65397H21.0205M9.06701 3.65397C9.06701 3.03132 8.81819 2.43418 8.37529 1.9939C7.93239 1.55362 7.3317 1.30627 6.70534 1.30627C6.3952 1.30627 6.0881 1.367 5.80157 1.48498C5.51504 1.60296 5.25469 1.77589 5.03539 1.9939C4.81609 2.2119 4.64213 2.47071 4.52345 2.75554C4.40476 3.04038 4.34368 3.34566 4.34368 3.65397C4.34368 3.96227 4.40476 4.26755 4.52345 4.55239C4.64213 4.83723 4.81609 5.09603 5.03539 5.31404C5.25469 5.53204 5.51504 5.70497 5.80157 5.82295C6.0881 5.94093 6.3952 6.00166 6.70534 6.00166C7.3317 6.00166 7.93239 5.75431 8.37529 5.31404C8.81819 4.87376 9.06701 4.27661 9.06701 3.65397Z" stroke="black" stroke-width="1.5" stroke-miterlimit="10" stroke-linecap="round"/>
</svg>
