<svg width="22" height="19" viewBox="0 0 22 19" fill="none" xmlns="http://www.w3.org/2000/svg">
    <path fill-rule="evenodd" clip-rule="evenodd" d="M10.75 1.92638C8.438 -0.143622 5.849 -0.433622 3.75 0.525378C1.536 1.54038 0 3.89238 0 6.60438C0 9.26938 1.11 11.3034 2.567 12.9434C3.733 14.2564 5.16 15.3554 6.421 16.3254C6.70767 16.5454 6.983 16.7594 7.247 16.9674C7.76 17.3714 8.31 17.8014 8.867 18.1274C9.424 18.4534 10.06 18.7174 10.75 18.7174C11.44 18.7174 12.076 18.4524 12.633 18.1274C13.191 17.8014 13.74 17.3714 14.253 16.9674C14.517 16.7594 14.7923 16.5454 15.079 16.3254C16.339 15.3554 17.767 14.2554 18.933 12.9434C20.39 11.3034 21.5 9.26938 21.5 6.60438C21.5 3.89238 19.965 1.54038 17.75 0.527378C15.651 -0.432622 13.062 -0.142622 10.75 1.92638Z" fill="#A8BBA2"/>
</svg>
