<svg width="22" height="22" viewBox="0 0 22 22" fill="none" xmlns="http://www.w3.org/2000/svg">
    <path d="M11.0002 1.83331C5.93741 1.83331 1.8335 5.93723 1.8335 11C1.8335 16.0627 5.93741 20.1666 11.0002 20.1666C16.0629 20.1666 20.1668 16.0627 20.1668 11C20.1668 5.93723 16.0629 1.83331 11.0002 1.83331Z" stroke="black" stroke-width="1.5" stroke-linecap="round" stroke-linejoin="round"/>
    <path d="M3.91504 16.8172C3.91504 16.8172 5.95829 14.2083 11 14.2083C16.0416 14.2083 18.0858 16.8172 18.0858 16.8172M11 11C11.7293 11 12.4288 10.7103 12.9445 10.1945C13.4602 9.67882 13.75 8.97935 13.75 8.25C13.75 7.52065 13.4602 6.82118 12.9445 6.30546C12.4288 5.78973 11.7293 5.5 11 5.5C10.2706 5.5 9.57114 5.78973 9.05541 6.30546C8.53969 6.82118 8.24996 7.52065 8.24996 8.25C8.24996 8.97935 8.53969 9.67882 9.05541 10.1945C9.57114 10.7103 10.2706 11 11 11Z" stroke="black" stroke-width="1.5" stroke-linecap="round" stroke-linejoin="round"/>
</svg>
