<svg xmlns="http://www.w3.org/2000/svg" width="17" height="17" viewBox="0 0 17 17" fill="none">
    <path d="M8.60986 16.7803C13.028 16.7803 16.6099 13.1985 16.6099 8.78027C16.6099 4.36209 13.028 0.780273 8.60986 0.780273C4.19168 0.780273 0.609863 4.36209 0.609863 8.78027C0.609863 13.1985 4.19168 16.7803 8.60986 16.7803Z" fill="white"/>
    <path fill-rule="evenodd" clip-rule="evenodd" d="M4.35964 8.33501C5.78775 7.73031 7.21978 7.1349 8.65564 6.54883C10.7015 5.72701 11.1262 5.58519 11.4033 5.5801C11.4644 5.57938 11.6011 5.59392 11.6891 5.66301C11.7633 5.72119 11.7836 5.79974 11.7938 5.85574C11.804 5.91101 11.8156 6.03683 11.8062 6.13501C11.6956 7.2601 11.2156 9.9881 10.972 11.2477C10.868 11.7808 10.6651 11.9597 10.468 11.9772C10.0404 12.015 9.71528 11.7037 9.30146 11.4419C8.65273 11.0317 8.28692 10.7765 7.65782 10.3757C6.93055 9.91319 7.4011 9.65865 7.81564 9.24338C7.92473 9.13429 9.8091 7.47974 9.84546 7.32919C9.85055 7.31029 9.85419 7.24047 9.81128 7.20338C9.76837 7.16701 9.7051 7.17938 9.65855 7.18883C9.59382 7.20338 8.55819 7.86519 6.55164 9.1721C6.25782 9.36701 5.99164 9.46156 5.7531 9.45719C5.48982 9.45138 4.98364 9.31319 4.60764 9.19538C4.14655 9.04992 3.78001 8.97429 3.81201 8.72774C3.82801 8.59974 4.01128 8.46883 4.35964 8.33501Z" fill="black"/>
</svg>